
Complete name                    : Shall.We.Dance.2004.avi
Format                           : AVI
File size                        : 1.37 GiB
Duration                         : 1h 42mn
Overall bit rate                 : 1 922 Kbps

Video

Format                           : MPEG-4 Visual
Codec ID/Hint                    : XviD
Duration                         : 1h 42mn
Bit rate                         : 1 463 Kbps
Width                            : 720 pixels
Height                           : 554 pixels
Display aspect ratio             : 16:9
Stream size                      : 1.04 GiB (76%)
Writing library                  : XviD 1.1.2 (UTC 2006-11-01)

Audio

Format                           : AC-3
Duration                         : 1h 42mn
Bit rate                         : 448 Kbps
Channel(s)                       : 6 channels
Channel positions                : Front: L C R, Side: L R, LFE
Sampling rate                    : 48.0 KHz
Bit depth                        : 16 bits
Stream size                      : 327 MiB (23%)


Text #3
Language                         : English

Text #2
Language                         : English

Text #3
Language                         : French

Text #4
Language                         : Swedish

Text #5
Language                         : Norwegian

Text #6
Language                         : Danish

Text #7
Language                         : Finnish

Text #8
Language                         : Icelandic

Text #9
Language                         : Portuguese

Text #10
Language                         : Dutch

Text #11
Language                         : Greek

Text #12
Language                         : Bulgarian

Text #13
Language                         : Romanian